<?xml version="1.0" ?><svg id="Слой_1" style="enable-background:new 0 0 512 512;" version="1.1" viewBox="0 0 512 512" xml:space="preserve" xmlns="http://www.w3.org/2000/svg" xmlns:xlink="http://www.w3.org/1999/xlink"><style type="text/css">
	.st0{fill:#EBF2FF;}
	.st1{fill:#FFCCB8;}
	.st2{fill:none;stroke:#000000;stroke-width:12;stroke-miterlimit:10;}
	.st3{fill:#FFF7C3;}
</style><g><g><path class="st0" d="M245.5,273.5L144.6,384.7c-18.3-24.6-29.2-55-29.2-88v-23.1H245.5z"/><path class="st0" d="M277.9,277.4L163.9,402.8c-4.3-4.1-8.4-8.6-12.2-13.3l101.9-112.2H277.9z"/><path class="st0" d="M463.1,273.5v23.1c0,81.4-66,147.4-147.4,147.4h-52.8c-33.3,0-64-11-88.7-29.7L302,273.5H463.1z"/></g><g><rect class="st1" height="63.3" width="96" x="359.9" y="168.6"/><line class="st2" x1="177.4" x2="162.3" y1="431.2" y2="453.4"/><line class="st2" x1="373.3" x2="388.4" y1="431.2" y2="453.4"/><line class="st2" x1="313.9" x2="455.9" y1="167.4" y2="167.4"/><g><path class="st3" d="M246.4,182.1h-59c0-16.3,13.2-29.5,29.5-29.5S246.4,165.8,246.4,182.1z"/><path class="st2" d="M68.4,88.3h103.3c6,0,11.9,1.8,16.9,5.1l0,0c8.6,5.7,13.8,15.3,13.8,25.6v34.3"/><path class="st2" d="M231.8,182.1h-59c0-16.3,13.2-29.5,29.5-29.5S231.8,165.8,231.8,182.1z"/><line class="st2" x1="172.2" x2="164" y1="197.5" y2="209.4"/><line class="st2" x1="200.7" x2="200.7" y1="200.2" y2="215.7"/><line class="st2" x1="229.2" x2="237.4" y1="199.5" y2="211.4"/></g><path class="st2" d="M308.4,448.2h-69.5c-81.4,0-147.5-66-147.5-147.5v-31.3h364.5v31.3C455.9,382.2,389.8,448.2,308.4,448.2z"/><line class="st2" x1="90.2" x2="66.8" y1="269.4" y2="269.4"/><line class="st2" x1="480.4" x2="457" y1="269.4" y2="269.4"/><line class="st2" x1="217" x2="263.3" y1="304.3" y2="304.3"/><line class="st2" x1="61.7" x2="190.5" y1="304.3" y2="304.3"/><line class="st2" x1="42.6" x2="21.4" y1="303.2" y2="303.2"/><rect class="st2" height="63.3" width="96" x="336.9" y="167.4"/></g></g></svg>